<svg width="24" height="24" viewBox="0 0 24 24" fill="none" xmlns="http://www.w3.org/2000/svg">
<path d="M7 5.99945C7 12.0795 11.92 16.9995 18 16.9995C18.53 16.9995 19.05 16.9595 19.56 16.8895C17.95 19.3595 15.17 20.9995 12 20.9995C7.03 20.9995 3 16.9695 3 11.9995C3 8.82945 4.64 6.04945 7.11 4.43945C7.04 4.94945 7 5.46945 7 5.99945Z" stroke="#2A2A2A" stroke-width="2" stroke-linecap="round" stroke-linejoin="round"/>
<path d="M7 5.99945C7 12.0795 11.92 16.9995 18 16.9995C18.53 16.9995 19.05 16.9595 19.56 16.8895C17.95 19.3595 15.17 20.9995 12 20.9995C7.03 20.9995 3 16.9695 3 11.9995C3 8.82945 4.64 6.04945 7.11 4.43945C7.04 4.94945 7 5.46945 7 5.99945Z" stroke="black" stroke-opacity="0.2" stroke-width="2" stroke-linecap="round" stroke-linejoin="round"/>
<path d="M7 5.99945C7 12.0795 11.92 16.9995 18 16.9995C18.53 16.9995 19.05 16.9595 19.56 16.8895C17.95 19.3595 15.17 20.9995 12 20.9995C7.03 20.9995 3 16.9695 3 11.9995C3 8.82945 4.64 6.04945 7.11 4.43945C7.04 4.94945 7 5.46945 7 5.99945Z" stroke="black" stroke-opacity="0.2" stroke-width="2" stroke-linecap="round" stroke-linejoin="round"/>
<path d="M15.22 6.03L17.75 4.09L14.56 4L13.5 1L12.44 4L9.25 4.09L11.78 6.03L10.87 9.09L13.5 7.28L16.13 9.09L15.22 6.03Z" fill="#2A2A2A"/>
<path d="M15.22 6.03L17.75 4.09L14.56 4L13.5 1L12.44 4L9.25 4.09L11.78 6.03L10.87 9.09L13.5 7.28L16.13 9.09L15.22 6.03Z" fill="black" fill-opacity="0.2"/>
<path d="M15.22 6.03L17.75 4.09L14.56 4L13.5 1L12.44 4L9.25 4.09L11.78 6.03L10.87 9.09L13.5 7.28L16.13 9.09L15.22 6.03Z" fill="black" fill-opacity="0.2"/>
<path d="M19.61 12.25L21.25 11L19.19 10.95L18.5 9L17.81 10.95L15.75 11L17.39 12.25L16.8 14.23L18.5 13.06L20.2 14.23L19.61 12.25Z" fill="#2A2A2A"/>
<path d="M19.61 12.25L21.25 11L19.19 10.95L18.5 9L17.81 10.95L15.75 11L17.39 12.25L16.8 14.23L18.5 13.06L20.2 14.23L19.61 12.25Z" fill="black" fill-opacity="0.2"/>
<path d="M19.61 12.25L21.25 11L19.19 10.95L18.5 9L17.81 10.95L15.75 11L17.39 12.25L16.8 14.23L18.5 13.06L20.2 14.23L19.61 12.25Z" fill="black" fill-opacity="0.2"/>
</svg>
